<svg width="863" height="957" viewBox="0 0 863 957" fill="none" xmlns="http://www.w3.org/2000/svg">
<path d="M435.778 338L79.7771 687C79.7771 687 -18.7217 793.5 79.7776 903.5C183.16 1018.95 307.777 903.5 307.777 903.5L435.778 777L559.278 903.5C559.278 903.5 663.202 1022.48 788.278 903.5C870.278 825.5 816.277 725.5 816.277 725.5L435.778 338Z" fill="#0163C5"/>
<path d="M467 317.093C467 317.093 592.888 308.5 660 428C708.018 513.5 695.101 562 695.101 562L773.5 646.5C773.5 646.5 837.273 646.203 855.24 598.391C873.207 550.578 857.836 383.138 831.024 349.765C796.455 306.738 695.101 317.093 695.101 317.093H467Z" fill="#0163C5"/>
<path d="M411 317.093L80.2115 647C80.2115 647 26.7016 646.203 8.05425 598.391C-10.5931 550.578 5.35985 383.138 33.1877 349.765C69.0658 306.738 174.259 317.093 174.259 317.093H411Z" fill="#0163C5"/>
<path d="M269 168.5C269 75.44 344.44 0 437.5 0C530.56 0 606 75.44 606 168.5V285H269V168.5Z" fill="#0163C5"/>
<path d="M441.627 768.755C503.736 767.55 562.856 743.468 605.981 701.806C649.106 660.145 672.705 604.318 671.585 546.605C670.465 488.893 644.719 434.022 600.009 394.066C555.3 354.109 499.511 336.562 437.403 337.767L437.405 551.149L441.627 768.755Z" fill="#0163C5"/>
</svg>
